{
  "accessors": [
    {
      "bufferView": 0,
      "componentType": 5125,
      "count": 58452,
      "type": "SCALAR"
    },
    {
      "bufferView": 1,
      "componentType": 5126,
      "count": 12385,
      "max": [
        0.11085028416531828,
        0.06539176802027459,
        0.018030694861157135
      ],
      "min": [
        -0.11085028449018752,
        -0.06539176673671826,
        -0.018030694861157135
      ],
      "type": "VEC3"
    },
    {
      "bufferView": 2,
      "componentType": 5126,
      "count": 12385,
      "max": [
        0.9999999999986434,
        0.9999999999134597,
        1.0
      ],
      "min": [
        -0.9999999999936251,
        -0.9999999999925648,
        -1.0
      ],
      "type": "VEC3"
    },
    {
      "bufferView": 3,
      "componentType": 5126,
      "count": 12385,
      "max": [
        0.6327553877282793,
        1.0
      ],
      "min": [
        0.0,
        0.0
      ],
      "type": "VEC2"
    },
    {
      "bufferView": 4,
      "componentType": 5125,
      "count": 131634,
      "type": "SCALAR"
    },
    {
      "bufferView": 5,
      "componentType": 5126,
      "count": 30049,
      "max": [
        0.11307480193402952,
        0.06761630689413048,
        -0.0020225178778338834
      ],
      "min": [
        -0.11307480193402974,
        -0.06761630689413045,
        -0.018030694861157135
      ],
      "type": "VEC3"
    },
    {
      "bufferView": 6,
      "componentType": 5126,
      "count": 30049,
      "max": [
        0.9999999999981309,
        0.9999999999925491,
        0.9999997927225536
      ],
      "min": [
        -0.9999999999986171,
        -0.9999999999963859,
        -1.0
      ],
      "type": "VEC3"
    },
    {
      "bufferView": 7,
      "componentType": 5126,
      "count": 30049,
      "max": [
        1.0,
        0.9783873770929706
      ],
      "min": [
        0.0,
        0.0
      ],
      "type": "VEC2"
    }
  ],
  "asset": {
    "generator": "Adobe Illustrator",
    "version": "2.0"
  },
  "bufferViews": [
    {
      "buffer": 0,
      "byteLength": 233808,
      "target": 34963
    },
    {
      "buffer": 0,
      "byteLength": 148620,
      "byteOffset": 233808,
      "target": 34962
    },
    {
      "buffer": 0,
      "byteLength": 148620,
      "byteOffset": 382428,
      "target": 34962
    },
    {
      "buffer": 0,
      "byteLength": 99080,
      "byteOffset": 531048,
      "target": 34962
    },
    {
      "buffer": 0,
      "byteLength": 526536,
      "byteOffset": 630128,
      "target": 34963
    },
    {
      "buffer": 0,
      "byteLength": 360588,
      "byteOffset": 1156664,
      "target": 34962
    },
    {
      "buffer": 0,
      "byteLength": 360588,
      "byteOffset": 1517252,
      "target": 34962
    },
    {
      "buffer": 0,
      "byteLength": 240392,
      "byteOffset": 1877840,
      "target": 34962
    }
  ],
  "buffers": [
    {
      "byteLength": 2118232,
      "uri": "data:application/octet-stream;base64,"
    }
  ],
  "images": [
    {
      "name": "BaseColor",
      "uri": "data:image/png;base64,"
    }
  ],
  "materials": [
    {
      "doubleSided": true,
      "pbrMetallicRoughness": {
        "baseColorTexture": {
          "index": 0
        },
        "metallicFactor": 0.1975203901529312,
        "roughnessFactor": 0.2679688036441803
      }
    },
    {
      "doubleSided": true,
      "pbrMetallicRoughness": {
        "baseColorFactor": [
          0.0234375,
          0.01953125,
          0.04296875,
          1.0
        ],
        "metallicFactor": 0.1975203901529312,
        "roughnessFactor": 0.2679688036441803
      }
    }
  ],
  "meshes": [
    {
      "primitives": [
        {
          "attributes": {
            "NORMAL": 2,
            "POSITION": 1,
            "TEXCOORD_0": 3
          },
          "indices": 0,
          "material": 0,
          "mode": 4
        }
      ]
    },
    {
      "primitives": [
        {
          "attributes": {
            "NORMAL": 6,
            "POSITION": 5,
            "TEXCOORD_0": 7
          },
          "indices": 4,
          "material": 1,
          "mode": 4
        }
      ]
    }
  ],
  "nodes": [
    {
      "mesh": 0
    },
    {
      "mesh": 1
    }
  ],
  "samplers": [
    {
      "magFilter": 9729,
      "minFilter": 9729,
      "wrapS": 10497,
      "wrapT": 10497
    }
  ],
  "scenes": [
    {
      "nodes": [
        0,
        1
      ]
    }
  ],
  "textures": [
    {
      "sampler": 0,
      "source": 0
    }
  ]
}
